<svg width="38" height="31" viewBox="0 0 38 31" fill="none" xmlns="http://www.w3.org/2000/svg">
<path d="M20.6742 22.7912L12.2081 14.3466C11.8179 13.9575 11.1864 13.9573 10.7961 14.3463L0.794612 24.3123C0.381134 24.7244 0.406962 25.4015 0.850626 25.7808L5.23077 29.5257C5.593 29.8354 6.05393 30.0055 6.53051 30.0055L14.438 30.0052C14.7024 30.0052 14.9561 29.9005 15.1435 29.7139L20.6735 24.2079C21.0659 23.8172 21.0661 23.1822 20.6742 22.7912Z" stroke="#F77F3F"/>
<path d="M22.5273 22.5L35.5273 9.5M15.5273 15L22.5273 8" stroke="#F77F3F" stroke-linecap="round"/>
<path d="M23.0273 11L25.0273 9" stroke="#F77F3F" stroke-linecap="round"/>
<path d="M17.5273 16.5L21.5273 12.5" stroke="#F77F3F" stroke-linecap="round"/>
<path d="M13.0273 13L25.5273 0.5" stroke="#F77F3F" stroke-linecap="round"/>
<path d="M12.0273 30H36.5273" stroke="#F77F3F" stroke-linecap="round"/>
</svg>
