<svg width="28" height="24" viewBox="0 0 28 24" fill="none" xmlns="http://www.w3.org/2000/svg">
<path d="M0.5 3.5L7.9079 3.5C8.13675 3.5 8.34822 3.62205 8.46272 3.82019L17.9156 20.1798C18.0301 20.378 18.2415 20.5 18.4704 20.5H22.5" stroke="#F77F3F" stroke-linecap="round"/>
<path d="M22.5 3.5H17.3975C17.1687 3.5 16.9572 3.62205 16.8427 3.82019L14.3998 8.04805M0.499999 20.5H6.83498C7.06383 20.5 7.2753 20.378 7.3898 20.1798L11.1206 13.7231" stroke="#F77F3F" stroke-linecap="round"/>
<path d="M23.5 17.5L27.1583 20.2437C27.3291 20.3718 27.3291 20.6282 27.1583 20.7563L23.5 23.5" stroke="#F77F3F" stroke-linecap="round"/>
<path d="M23.5 0.5L27.1583 3.24369C27.3291 3.37184 27.3291 3.62816 27.1583 3.75631L23.5 6.5" stroke="#F77F3F" stroke-linecap="round"/>
</svg>
